<?xml version="1.0" encoding="UTF-8"?>
<!DOCTYPE svg PUBLIC "-//W3C//DTD SVG 1.1//EN" "http://www.w3.org/Graphics/SVG/1.1/DTD/svg11.dtd">
<!-- Creator: CorelDRAW 2019 (64-Bit) -->
<svg xmlns="http://www.w3.org/2000/svg" xml:space="preserve" width="1399px" height="480px" version="1.1" style="shape-rendering:geometricPrecision; text-rendering:geometricPrecision; image-rendering:optimizeQuality; fill-rule:evenodd; clip-rule:evenodd"
viewBox="0 0 1399 480.17"
 xmlns:xlink="http://www.w3.org/1999/xlink"
 xmlns:xodm="http://www.corel.com/coreldraw/odm/2003">
 <defs>
  <style type="text/css">
   <![CDATA[
    .fil3 {fill:#1EAC4B}
    .fil0 {fill:#268ACB}
    .fil7 {fill:#268ACB}
    .fil2 {fill:#8FC43F}
    .fil4 {fill:#DF3286}
    .fil6 {fill:#E41F29}
    .fil5 {fill:#EF9720}
    .fil1 {fill:white}
   ]]>
  </style>
 </defs>
 <g id="Layer_x0020_1">
  <metadata id="CorelCorpID_0Corel-Layer"/>
  <path class="fil0" d="M21.6 178.39l269.68 -14.93c8.99,-0.49 18.14,7.54 16.36,16.36 -19.33,95.8 -15.91,190.37 5.11,284 1.97,8.77 -7.36,16.35 -16.36,16.35l-282.97 0c-8.99,0 -15.36,-10.57 -12.88,-19.22 21.49,-74.87 27.11,-159.02 7.16,-266.61 -1.64,-8.85 4.92,-15.45 13.9,-15.95z"/>
  <path class="fil1" d="M87.23 217.65c6.55,0 11.86,5.3 11.86,11.85 0,6.55 -5.31,11.86 -11.86,11.86 -6.55,0 -11.86,-5.31 -11.86,-11.86 0,-6.55 5.31,-11.85 11.86,-11.85zm122.2 52.43c-0.05,-6.3 5.02,-11.44 11.32,-11.49 6.3,-0.05 11.45,5.02 11.5,11.31l0 0.41 0 0.09 0 0 0 0.41 0.04 0c0,21.79 -8.83,41.52 -23.11,55.8 -14.29,14.28 -34.02,23.12 -55.81,23.12 -21.79,0 -41.52,-8.84 -55.8,-23.12 -14.28,-14.28 -23.12,-34.01 -23.12,-55.8l0.05 0 0 -0.4c0,-6.3 5.1,-11.4 11.4,-11.4 6.3,0 11.41,5.1 11.41,11.4l0 0.4 0.04 0c0,15.47 6.27,29.47 16.41,39.61 10.14,10.14 24.14,16.41 39.61,16.41 15.47,0 29.48,-6.27 39.62,-16.41 10.14,-10.14 16.4,-24.14 16.4,-39.61l0.05 0 0 -0.31 0 -0.01 -0.01 -0.41zm10.09 -52.43c6.55,0 11.85,5.3 11.85,11.85 0,6.55 -5.3,11.86 -11.85,11.86 -6.55,0 -11.86,-5.31 -11.86,-11.86 0,-6.55 5.31,-11.85 11.86,-11.85z"/>
  <path class="fil2" d="M132.47 160.3l-12.27 -103.05 5.72 -5.93c0.26,0.54 0.53,1.02 0.82,1.43 4.09,-2.03 14.66,-8 22.01,-12.19 2.42,2.58 5.87,4.19 9.69,4.19 4.04,0 7.67,-1.81 10.11,-4.66l25.59 5.54 7.03 4.46c0,0 10.04,85.77 12.66,109.14l-80.73 4.47 -0.63 -3.4zm9.59 -139.29l-8.78 -14.88c0,0 3.79,-1.63 5.93,-0.71 2.15,0.92 4.71,2.25 6.04,1.63 1.33,-0.61 6.13,-5.62 8.17,-6.34 2.05,-0.71 2.66,-0.71 2.66,-0.71 0,0 6.34,1.94 7.87,3.48 1.54,1.53 2.36,2.24 3.89,1.63 1.53,-0.61 5.93,-4.19 7.67,-4.39 1.73,-0.21 2.86,-0.11 2.86,-0.11l-4.74 18.17c-2.04,1.15 -4.02,2.27 -5.79,3.29 -2.41,-2.41 -5.73,-3.9 -9.4,-3.9 -3.86,0 -7.34,1.65 -9.76,4.28l-6.62 -1.44z"/>
  <path class="fil3" d="M122.45 16.77c-1.18,2.58 -0.5,29.21 4.29,35.98 4.09,-2.03 14.66,-8 22.01,-12.19 2.42,2.58 5.87,4.19 9.69,4.19 4.04,0 7.67,-1.81 10.11,-4.66l25.88 5.61c1.17,-2.58 0.49,-29.22 -4.3,-35.99 -4.13,2.06 -14.94,8.16 -22.29,12.36 -2.41,-2.41 -5.73,-3.9 -9.4,-3.9 -3.86,0 -7.34,1.65 -9.76,4.28l-26.23 -5.68z"/>
  <path class="fil4" d="M186.67 79.35l35.96 8.07 1.22 0.27 0 0 -1.22 -0.27 -16.19 72.22 -46.03 2.54 17.29 -77.14c0.91,-4.03 4.94,-6.59 8.97,-5.69zm81.67 18.31l33.2 7.45c4.03,0.9 6.58,4.93 5.68,8.96l-9.07 40.49 -46.03 2.55 13.27 -59.23c1.01,-0.04 1.99,-0.12 2.95,-0.22z"/>
  <path class="fil5" d="M222.63 87.42l1.22 0.27c-6.12,-4.56 -21.86,-14.96 -18.05,-23.64 4.74,-10.79 16.8,-9.79 23.79,-3.12 6.98,6.67 10.87,18.09 11.29,24.95 0,0 4.5,-1.4 7.87,0.26 3.36,1.65 3.98,1.96 3.98,1.96 0,0 16.87,-21.55 28.27,-17.27 11.4,4.28 14.58,13.26 11.32,17.17 -3.03,3.65 -12.97,9.2 -26.93,9.88l-13.27 59.23 -45.68 2.53 16.19 -72.22zm9.5 -4.42c0,0 -3.75,-14.59 -8.88,-17.11 -5.13,-2.53 -8.29,-1.52 -9.76,1.47 -1.47,2.98 8.38,9.83 18.64,15.64zm49.73 -3.29c0,0 3.68,2.95 2.28,5.21 -1.4,2.26 -14.08,4.86 -16.79,4.95 -2.71,0.1 -5.95,-0.07 -5.95,-0.07 0,0 7.81,-7.19 12.03,-9.58 4.22,-2.39 6.89,-1.64 8.43,-0.51z"/>
  <path class="fil5" d="M13.01 122.78l42.93 -10.37 1.45 -0.35 0 0 -1.45 0.35 13.23 54.82 -53.96 2.99 -8.83 -36.59c-1.16,-4.81 1.82,-9.69 6.63,-10.85zm97.51 -23.54l39.63 -9.56c4.81,-1.17 9.69,1.82 10.86,6.63l15.68 64.97 -53.97 2.99 -15.26 -63.23c1.06,-0.58 2.07,-1.18 3.06,-1.8z"/>
  <path class="fil6" d="M55.94 112.41l1.45 -0.35c-8.98,-1.66 -31.41,-4.51 -31.91,-15.86 -0.61,-14.11 12.88,-19.43 23.92,-15.95 11.05,3.48 21.27,13.7 25.36,20.85 0,0 4.09,-3.88 8.59,-3.88 4.49,0 5.31,0 5.31,0 0,0 6.75,-32.1 21.27,-33.53 14.51,-1.43 22.69,6.54 21.26,12.47 -1.34,5.53 -9.08,16.76 -23.73,24.88l15.26 63.23 -53.55 2.96 -13.23 -54.82zm7.88 -9.77c0,0 -11.76,-13.7 -18.61,-13.7 -6.85,0 -9.71,2.76 -9.71,6.75 0,3.98 14.21,6.13 28.32,6.95zm51.73 -29.85c0,0 5.52,1.22 5.21,4.39 -0.31,3.17 -12.57,12.68 -15.44,14.21 -2.86,1.54 -6.44,3.07 -6.44,3.07 0,0 4.6,-11.86 7.88,-16.66 3.27,-4.81 6.54,-5.42 8.79,-5.01z"/>
  <path class="fil7" d="M471.01 161.65c53.75,0 97.32,43.57 97.32,97.33 0,53.75 -43.57,97.32 -97.32,97.32 -53.75,0 -97.32,-43.57 -97.32,-97.32l0 -150.9c12.77,-13.91 28.01,-22.48 45.69,-23.3 0,55.2 0,110.4 0,165.61 0,40.52 15.83,74.72 47.07,74.72 36.53,0 58.02,-29.61 58.02,-66.13 0,-36.53 -29.61,-66.14 -66.14,-66.14 -6.57,0 -12.92,0.96 -18.92,2.75 0,0 8.32,-21.62 24.17,-33.66 2.45,-0.18 4.93,-0.28 7.43,-0.28zm677.81 -102.73c9.81,0 18.73,3.76 25.42,9.91l-9.47 9.47c-4.25,-3.74 -9.84,-6.01 -15.95,-6.01 -13.36,0 -24.19,10.83 -24.19,24.2 0,13.36 10.83,24.19 24.19,24.19 6.11,0 11.7,-2.27 15.95,-6.01l9.47 9.47c-6.69,6.15 -15.61,9.91 -25.42,9.91 -20.74,0 -37.56,-16.82 -37.56,-37.56 0,-20.75 16.82,-37.57 37.56,-37.57zm123.23 8.98c4.32,-4.71 9.38,-7.83 15.16,-8.73l0 12.31c2.92,-3.52 11.32,-12.26 22.59,-12.26 12.86,0 20.55,6.2 23.35,13.64 0.65,-0.9 10.07,-13.64 23.68,-13.64 19.56,0 26.05,12.89 26.05,30.04l0 0.01 0 33.35c-4.92,5.36 -10.79,8.66 -17.6,8.98l0 -43.04c0,0 -0.68,-14.52 -12.75,-14.52 -18.36,0 -15.76,14.47 -16.68,17.9l0 30.68c-4.91,5.36 -10.78,8.66 -17.59,8.98l0 -43.04c0,0 -0.69,-14.52 -12.75,-14.52 -12.07,0 -15.86,8.28 -15.86,15.64l0 32.94c-4.92,5.36 -10.79,8.66 -17.6,8.98l0 -63.7zm-48.8 -8.98c20.74,0 37.56,16.82 37.56,37.57 0,20.74 -16.82,37.56 -37.56,37.56 -20.75,0 -37.57,-16.82 -37.57,-37.56 0,-20.75 16.82,-37.57 37.57,-37.57zm0 13.37c13.36,0 24.19,10.83 24.19,24.2 0,13.36 -10.83,24.19 -24.19,24.19 -13.37,0 -24.2,-10.83 -24.2,-24.19 0,-13.37 10.83,-24.2 24.2,-24.2zm-377.67 89.36c53.75,0 97.32,43.57 97.32,97.33 0,53.75 -43.57,97.32 -97.32,97.32 -53.75,0 -97.32,-43.57 -97.32,-97.32l0 -150.9c12.77,-13.91 28.01,-22.48 45.69,-23.3 0,55.2 0,110.4 0,165.61 0,40.52 15.83,74.72 47.07,74.72 36.53,0 58.02,-29.61 58.02,-66.13 0,-36.53 -29.61,-66.14 -66.14,-66.14 -6.57,0 -12.92,0.96 -18.92,2.75 0,0 8.32,-21.62 24.17,-33.66 2.45,-0.18 4.93,-0.28 7.43,-0.28zm203.64 22.9c12.77,-13.91 28.01,-22.48 45.69,-23.31 0,101.42 0,70.34 0,171.75 -12.77,13.91 -28.01,22.48 -45.69,23.31 0,-101.41 0,-70.34 0,-171.75zm22.85 -98.34c12.64,0 22.9,10.25 22.9,22.9 0,12.64 -10.26,22.9 -22.9,22.9 -12.65,0 -22.9,-10.26 -22.9,-22.9 0,-12.65 10.25,-22.9 22.9,-22.9zm-98.91 -34.15c12.78,-13.91 28.01,-22.48 45.69,-23.31 0,101.41 0,202.83 0,304.24 -12.77,13.91 -28.01,22.48 -45.69,23.31 0,-101.41 0,-202.83 0,-304.24zm-298.51 132.49c12.77,-13.91 28.01,-22.48 45.69,-23.31 0,101.42 0,70.34 0,171.75 -12.77,13.91 -28.01,22.48 -45.69,23.31 0,-101.41 0,-70.34 0,-171.75zm22.85 -98.34c12.64,0 22.9,10.25 22.9,22.9 0,12.64 -10.26,22.9 -22.9,22.9 -12.65,0 -22.9,-10.26 -22.9,-22.9 0,-12.65 10.25,-22.9 22.9,-22.9zm-98.91 -34.15c12.77,-13.91 28.01,-22.48 45.69,-23.31 0,101.41 0,202.83 0,304.24 -12.77,13.91 -28.01,22.48 -45.69,23.31 0,-101.41 0,-202.83 0,-304.24z"/>
  <path class="fil7" d="M373.69 477.8l23.61 0c16.1,0 22.84,-7.16 22.84,-17.56 0,-6.9 -4.18,-12.19 -11.42,-13.81 5.54,-1.7 8.44,-6.56 8.44,-12.01 0,-9.72 -6.91,-16.28 -21.23,-16.28l-22.24 0 0 59.66zm32.81 -17.98c0,5.11 -3.32,7.67 -10.31,7.67l-9.12 0 0 -15.34 9.12 0c6.99,0 10.31,2.64 10.31,7.67zm-2.21 -24.64c0,4.52 -3.16,6.99 -9.21,6.99l-8.01 0 0 -13.72 8.01 0c6.05,0 9.21,2.05 9.21,6.73zm26.12 -17.04l0 59.66 13.63 0 0 -59.66 -13.63 0zm24.24 29.83c0,18.75 12.45,30.85 29.92,30.85 10.65,0 19.18,-4.09 24.55,-10.91l0 -23.01 -24.98 0 0 9.8 12.02 0 0 8.18c-2.21,2.99 -6.56,4.61 -11.42,4.61 -9.03,0 -16.36,-6.74 -16.36,-19.52 0,-12.79 7.16,-19.52 15.42,-19.52 6.4,0 10.83,2.81 13.81,7.93l11.34 -5.54c-5.2,-8.87 -14.07,-13.73 -25.66,-13.73 -16.79,0 -28.64,12.19 -28.64,30.86zm519.18 29.83l23.61 0c16.11,0 22.84,-7.16 22.84,-17.56 0,-6.9 -4.17,-12.19 -11.42,-13.81 5.54,-1.7 8.44,-6.56 8.44,-12.01 0,-9.72 -6.9,-16.28 -21.22,-16.28l-22.25 0 0 59.66zm32.82 -17.98c0,5.11 -3.33,7.67 -10.32,7.67l-9.12 0 0 -15.34 9.12 0c6.99,0 10.32,2.64 10.32,7.67zm-2.22 -24.64c0,4.52 -3.15,6.99 -9.21,6.99l-8.01 0 0 -13.72 8.01 0c6.06,0 9.21,2.05 9.21,6.73zm26.12 -17.04l0 59.66 13.64 0 0 -59.66 -13.64 0zm24.25 29.83c0,18.75 12.44,30.85 29.91,30.85 10.66,0 19.18,-4.09 24.55,-10.91l0 -23.01 -24.97 0 0 9.8 12.02 0 0 8.18c-2.22,2.99 -6.57,4.61 -11.43,4.61 -9.03,0 -16.36,-6.74 -16.36,-19.52 0,-12.79 7.16,-19.52 15.43,-19.52 6.39,0 10.82,2.81 13.81,7.93l11.33 -5.54c-5.2,-8.87 -14.06,-13.73 -25.65,-13.73 -16.8,0 -28.64,12.19 -28.64,30.86zm-511.12 0c0,18.15 10.82,30.85 27.78,30.85 10.83,0 18.93,-5.11 23.27,-12.1l-6.13 -3.84c-4.52,6.31 -9.81,9.12 -16.88,9.12 -11.59,0 -20.37,-8.43 -20.37,-24.03 0,-15.6 8.78,-24.04 20.37,-24.04 7.07,0 12.36,2.82 16.88,9.12l6.13 -3.83c-4.34,-6.99 -12.44,-12.11 -23.27,-12.11 -16.96,0 -27.78,12.7 -27.78,30.86zm61.75 29.83l7.5 0 0 -28.38 31.19 0 0 28.38 7.5 0 0 -59.66 -7.5 0 0 24.63 -31.19 0 0 -24.63 -7.5 0 0 59.66zm110.58 -29.83c0,-17.3 -9.71,-30.86 -26.59,-30.86 -16.96,0 -26.68,13.56 -26.68,30.86 0,17.3 9.72,30.85 26.68,30.85 16.88,0 26.59,-13.55 26.59,-30.85zm-45.6 0c0,-14.75 7.42,-24.04 19.01,-24.04 11.51,0 18.92,9.29 18.92,24.04 0,14.74 -7.41,24.03 -18.92,24.03 -11.59,0 -19.01,-9.29 -19.01,-24.03zm57.15 -29.83l0 59.66 7.5 0 0 -59.66 -7.5 0zm19.05 29.83c0,18.15 10.82,30.85 27.78,30.85 10.83,0 18.93,-5.11 23.27,-12.1l-6.13 -3.84c-4.52,6.31 -9.81,9.12 -16.88,9.12 -11.59,0 -20.37,-8.43 -20.37,-24.03 0,-15.6 8.78,-24.04 20.37,-24.04 7.07,0 12.36,2.82 16.88,9.12l6.13 -3.83c-4.34,-6.99 -12.44,-12.11 -23.27,-12.11 -16.96,0 -27.78,12.7 -27.78,30.86zm61.75 29.83l37.93 0 0 -6.65 -30.43 0 0 -20.79 26.68 0 0 -6.65 -26.68 0 0 -18.92 29.66 0 0 -6.65 -37.16 0 0 59.66zm68.91 -5.8c-6.99,0 -13.05,-2.55 -18.42,-8.26l-5.71 4.77c6.4,6.82 14.41,10.31 24.04,10.31 12.79,0 20.37,-6.9 20.37,-16.7 0,-10.57 -6.56,-15.09 -21.31,-19.01 -8.95,-2.39 -12.7,-6.31 -12.7,-10.65 0,-5.03 3.67,-8.53 11.25,-8.53 5.71,0 10.57,2.47 15.01,6.91l5.45 -4.52c-5.28,-5.88 -12.61,-9.21 -20.63,-9.21 -11.76,0 -18.75,6.4 -18.75,15.35 0,7.16 4.01,13.63 18.33,17.3 11.25,2.9 15.68,5.79 15.68,12.78 0,5.37 -4.86,9.46 -12.61,9.46l0 0zm269.53 5.8l19.44 0c17.98,0 28.29,-11.17 28.29,-29.83 0,-18.58 -10.31,-29.83 -28.29,-29.83l-19.44 0 0 59.66zm7.5 -6.65l0 -46.36 11.34 0c13.47,0 21.22,8.43 21.22,23.18 0,14.83 -7.75,23.18 -21.22,23.18l-11.34 0zm51.36 6.65l37.92 0 0 -6.65 -30.42 0 0 -20.79 26.67 0 0 -6.65 -26.67 0 0 -18.92 29.66 0 0 -6.65 -37.16 0 0 59.66zm66.52 -59.66l-23.02 59.66 8.27 0 5.63 -15.43 26.42 0 5.63 15.43 8.26 0 -23.01 -59.66 -8.18 0zm4.09 7.84l10.82 29.75 -21.65 0 10.83 -29.75zm36.09 51.82l37.08 0 0 -6.65 -29.58 0 0 -53.01 -7.5 0 0 59.66zm66.35 -5.8c-6.99,0 -13.04,-2.55 -18.41,-8.26l-5.71 4.77c6.4,6.82 14.41,10.31 24.04,10.31 12.78,0 20.37,-6.9 20.37,-16.7 0,-10.57 -6.56,-15.08 -21.31,-19.01 -8.95,-2.38 -12.7,-6.31 -12.7,-10.65 0,-5.03 3.67,-8.53 11.25,-8.53 5.71,0 10.57,2.47 15,6.91l5.46 -4.52c-5.29,-5.88 -12.62,-9.21 -20.63,-9.21 -11.76,0 -18.75,6.4 -18.75,15.35 0,7.16 4.01,13.62 18.33,17.3 11.25,2.89 15.68,5.79 15.68,12.78 0,5.37 -4.86,9.46 -12.62,9.46l0 0z"/>
 </g>
</svg>
